<?xml version="1.0" standalone="no"?>
<!DOCTYPE svg PUBLIC "-//W3C//DTD SVG 20010904//EN"
 "http://www.w3.org/TR/2001/REC-SVG-20010904/DTD/svg10.dtd">
<svg version="1.0" xmlns="http://www.w3.org/2000/svg"
 width="626.000000pt" height="626.000000pt" viewBox="0 0 626.000000 626.000000"
 preserveAspectRatio="xMidYMid meet">

<g transform="translate(0.000000,626.000000) scale(0.100000,-0.100000)"
fill="#000000" stroke="none">
<path d="M2918 4516 c-135 -36 -217 -151 -225 -316 -5 -101 6 -173 25 -162 6
5 19 35 27 68 24 90 77 193 131 253 54 60 144 123 202 142 20 6 41 15 47 20
14 14 -153 9 -207 -5z"/>
<path d="M3293 4460 c-186 -20 -395 -197 -438 -372 -6 -23 -1 -33 30 -63 35
-33 39 -34 52 -17 26 32 62 116 69 159 6 42 7 43 43 43 20 0 99 -16 176 -36
158 -40 231 -42 300 -6 50 25 73 51 90 98 28 82 -18 129 -126 129 -38 0 -69 1
-69 3 0 1 5 11 12 21 6 10 8 26 5 35 -7 18 -25 18 -144 6z"/>
<path d="M3114 3955 c-22 -16 -18 -17 51 -15 56 2 66 7 45 20 -23 15 -74 12
-96 -5z"/>
<path d="M3347 3944 c-13 -14 6 -24 44 -24 28 0 39 4 39 15 0 11 -11 15 -38
15 -21 0 -42 -3 -45 -6z"/>
<path d="M1767 3934 c-12 -12 -8 -51 8 -64 8 -6 23 -9 35 -5 17 5 20 13 18 38
-2 26 -8 33 -28 35 -14 2 -29 0 -33 -4z"/>
<path d="M1912 3928 c-32 -32 2 -79 43 -60 39 18 27 72 -15 72 -9 0 -21 -5
-28 -12z"/>
<path d="M2051 3921 c-14 -25 -5 -48 20 -56 27 -9 51 13 47 44 -4 34 -51 43
-67 12z"/>
<path d="M3286 3889 c-3 -17 -6 -51 -6 -75 0 -36 5 -46 30 -64 38 -27 31 -40
-23 -42 l-42 -1 38 -4 c22 -3 45 1 54 9 13 11 11 16 -17 40 -33 27 -33 27 -27
97 6 75 4 91 -7 40z"/>
<path d="M3152 3888 c-30 -30 1 -94 33 -68 25 20 13 80 -15 80 -3 0 -11 -5
-18 -12z"/>
<path d="M3349 3856 c-14 -30 -5 -59 17 -54 26 5 41 35 28 55 -17 27 -33 27
-45 -1z"/>
<path d="M5156 3782 c-141 -1 -224 -6 -233 -13 -9 -8 -13 -37 -13 -89 0 -118
-31 -110 411 -110 447 0 419 -7 419 109 0 52 -4 82 -13 89 -15 13 -245 18
-571 14z m-134 -66 c-3 -15 0 -16 17 -6 16 8 21 8 21 -3 0 -7 -5 -18 -12 -25
-9 -9 -9 -12 0 -12 7 0 12 -7 12 -15 0 -18 -12 -19 -29 -2 -10 10 -12 8 -9 -7
1 -10 -3 -21 -9 -23 -8 -3 -13 4 -13 18 0 18 -3 20 -12 11 -7 -7 -16 -12 -20
-12 -13 0 -9 28 5 33 9 4 9 8 -2 15 -7 5 -10 15 -6 21 5 9 10 9 21 0 11 -9 14
-7 14 11 0 13 5 20 13 17 6 -2 11 -12 9 -21z m152 1 c-1 -13 2 -14 17 -7 24
13 38 -9 15 -22 -16 -9 -16 -10 0 -22 12 -10 14 -15 5 -20 -6 -4 -18 -3 -25 3
-11 9 -14 8 -12 -5 0 -9 -5 -19 -11 -21 -7 -3 -13 3 -13 12 0 11 -5 15 -15 12
-19 -8 -31 13 -14 24 12 8 12 10 0 18 -7 5 -10 14 -6 20 5 9 10 9 21 0 11 -9
14 -7 14 11 0 13 5 20 13 17 6 -2 11 -11 11 -20z m156 -4 c0 -12 3 -13 14 -4
11 9 16 9 21 0 4 -6 1 -15 -6 -20 -12 -8 -12 -10 0 -18 17 -11 5 -32 -14 -24
-9 3 -15 -1 -15 -11 0 -9 -7 -16 -15 -16 -8 0 -15 7 -15 16 0 10 -6 14 -15 11
-19 -8 -31 13 -14 24 12 8 12 10 0 18 -7 5 -10 14 -6 20 5 9 10 9 20 1 9 -8
14 -5 18 11 6 23 27 17 27 -8z m150 6 c0 -17 3 -19 14 -10 11 9 16 9 21 0 4
-6 1 -15 -6 -20 -12 -8 -12 -10 0 -18 7 -5 10 -14 6 -20 -5 -9 -10 -9 -21 0
-11 9 -14 7 -14 -11 0 -13 -5 -20 -12 -17 -7 2 -12 12 -12 21 2 13 -1 14 -12
5 -7 -6 -19 -7 -25 -3 -9 5 -8 10 5 19 14 11 14 14 1 25 -21 17 -8 32 17 19
15 -8 19 -8 14 0 -8 13 1 31 15 31 5 0 9 -10 9 -21z m150 -3 c0 -9 7 -12 20
-9 24 6 27 -12 3 -21 -14 -6 -14 -8 3 -22 18 -15 18 -15 -3 -11 -15 3 -23 -1
-28 -17 l-8 -21 -4 21 c-3 16 -9 20 -24 17 -21 -6 -27 12 -6 21 10 5 10 7 0
12 -21 9 -15 26 7 19 14 -5 20 -2 20 9 0 9 5 16 10 16 6 0 10 -6 10 -14z"/>
<path d="M3208 3652 c-39 -5 -43 -29 -9 -63 31 -30 71 -39 71 -15 0 8 11 28
25 44 l25 30 -42 3 c-24 2 -55 3 -70 1z"/>
<path d="M4362 3624 c-46 -32 -64 -97 -40 -149 11 -25 8 -29 -48 -80 -32 -30
-65 -54 -73 -55 -7 0 -50 31 -95 68 -141 118 -141 111 1 -13 l23 -20 -72 -80
-71 -80 78 78 78 78 29 -28 28 -27 27 27 28 27 75 -73 75 -72 -72 75 -72 75
39 33 c38 31 41 32 62 18 13 -9 43 -16 70 -16 39 0 54 6 80 29 30 27 33 35 33
86 0 51 -3 59 -33 86 -18 16 -40 29 -50 28 -14 0 -14 -2 3 -9 17 -7 17 -9 3
-9 -10 -1 -18 -5 -18 -11 0 -14 24 -12 39 3 10 10 11 9 6 -5 -4 -10 -17 -18
-30 -18 -13 0 -27 -5 -30 -10 -4 -6 -10 -8 -14 -5 -5 2 -5 -15 0 -38 9 -50 -3
-69 -40 -65 -24 3 -26 7 -26 53 0 44 3 50 25 56 20 6 21 7 5 8 -16 1 -17 3 -6
10 11 7 10 10 -5 13 -14 4 -10 7 16 15 22 7 27 12 15 12 -11 1 -31 -6 -43 -15z
m-6 -31 c-2 -9 -8 -19 -15 -21 -10 -3 -10 0 -2 17 14 25 20 27 17 4z m183 -72
c1 -25 -2 -32 -10 -24 -5 5 -11 19 -12 30 0 11 -7 20 -14 20 -8 0 -9 -4 -4
-11 5 -6 12 -28 16 -48 6 -34 5 -38 -24 -52 -16 -9 -34 -16 -40 -16 -13 0 -10
40 4 40 5 0 2 5 -8 11 -22 13 -12 32 14 24 13 -5 19 -2 19 10 0 11 -7 15 -22
13 -14 -2 -23 2 -22 10 1 6 2 21 3 32 1 16 8 20 35 20 19 0 37 -6 39 -12 3 -7
6 -4 7 7 l1 20 9 -20 c5 -11 9 -36 9 -54z m-199 0 c0 -22 5 -43 10 -46 6 -4 8
-11 5 -16 -4 -5 7 -6 23 -3 24 5 30 2 35 -15 3 -12 1 -21 -3 -21 -26 0 -61 23
-75 49 -17 34 -20 91 -5 91 6 0 10 -18 10 -39z"/>
<path d="M4485 3470 c-11 -5 -14 -9 -7 -9 7 -1 10 -5 7 -11 -3 -5 0 -7 8 -4 7
2 14 11 14 19 0 8 -1 15 -1 14 -1 0 -10 -4 -21 -9z"/>
<path d="M3004 3606 c-11 -29 1 -51 37 -69 20 -9 44 -15 53 -11 24 9 21 60 -6
78 -28 20 -77 21 -84 2z"/>
<path d="M2930 3585 c0 -25 80 -112 130 -142 68 -41 80 -41 80 -3 0 19 -5 30
-14 30 -32 0 -114 44 -153 83 -24 22 -43 37 -43 32z"/>
<path d="M4375 3500 c4 -6 11 -8 16 -5 14 9 11 15 -7 15 -8 0 -12 -5 -9 -10z"/>
<path d="M2545 3359 c-142 -47 -261 -103 -330 -156 -61 -47 -103 -123 -135
-246 -21 -79 -25 -87 -52 -92 -36 -8 -84 -48 -105 -89 -44 -85 -46 -109 -50
-613 l-4 -483 -495 0 -494 0 0 -40 0 -40 40 0 40 0 0 -185 0 -185 855 0 855 0
0 155 0 155 1535 0 1534 0 4 -157 3 -158 2 183 2 182 -1504 0 -1505 0 -3 38
-3 37 -295 5 -295 5 298 3 297 2 0 39 c0 33 -4 40 -22 44 -13 2 27 5 87 6 61
1 133 4 161 7 l51 6 17 55 c10 29 30 69 47 87 l29 33 -83 30 c-75 26 -82 32
-85 58 -2 16 -14 42 -27 59 -27 37 -107 171 -142 240 -31 60 -31 93 -2 227
l22 103 -89 81 -88 82 -3 69 c-2 38 1 159 6 269 l9 200 -5 -251 c-5 -295 -9
-283 96 -368 39 -31 73 -67 76 -79 3 -12 -3 -62 -15 -110 -24 -104 -27 -151
-11 -192 16 -39 153 -275 161 -275 11 0 -27 450 -56 650 -19 134 -54 271 -103
408 -37 102 -96 242 -103 242 -2 -1 -57 -19 -123 -41z m-48 -526 c-2 -16 -4
-5 -4 22 0 28 2 40 4 28 2 -13 2 -35 0 -50z m-13 -122 c-3 -45 -9 -80 -11 -77
-3 3 -2 41 2 86 4 45 9 79 12 76 2 -2 1 -41 -3 -85z m-34 -317 c-16 -144 -19
-189 -9 -194 6 -5 116 -43 243 -85 127 -43 236 -82 241 -88 7 -7 3 -8 -10 -3
-11 4 -123 43 -250 86 -268 91 -377 131 -372 137 2 2 30 -6 61 -18 31 -12 58
-20 61 -18 2 3 14 97 27 209 13 113 24 195 26 183 2 -12 -6 -106 -18 -209z
m-155 -554 c61 -15 164 -35 230 -44 175 -23 175 -23 131 -25 -94 -3 -476 74
-501 101 -7 8 -4 9 10 3 11 -4 70 -20 130 -35z m-167 -167 c-25 -6 -22 -19 5
-28 12 -5 146 -10 297 -12 151 -1 277 -6 279 -10 2 -4 -4 -12 -14 -18 -13 -7
-19 -7 -22 3 -4 9 -55 11 -221 10 l-217 -2 205 -6 205 -6 -265 -1 c-146 0
-257 1 -247 4 26 7 21 16 -23 37 -45 22 -45 33 2 33 18 0 25 -2 16 -4z m-258
-15 c0 -8 -127 -9 -486 -4 l-487 8 5 -26 c3 -14 1 -26 -3 -26 -5 0 -9 13 -9
30 l0 30 490 0 c357 0 490 -3 490 -12z m26 -36 c-12 -11 -18 7 -10 30 l8 23 4
-23 c2 -13 1 -26 -2 -30z m194 18 c10 -7 -13 -10 -73 -10 -56 0 -86 4 -82 10
8 13 135 13 155 0z m-197 -37 c-13 -2 -35 -2 -50 0 -16 2 -5 4 22 4 28 0 40
-2 28 -4z m145 0 c-21 -2 -55 -2 -75 0 -21 2 -4 4 37 4 41 0 58 -2 38 -4z"/>
<path d="M3155 3362 c64 -166 132 -719 136 -1099 0 -73 4 -133 7 -133 4 0 6
-42 4 -93 l-3 -94 63 -6 c35 -3 78 -9 95 -13 l33 -6 3 253 2 254 3 -256 2
-256 45 -32 c25 -18 55 -50 68 -71 38 -68 53 -61 103 47 25 53 54 118 65 144
l21 48 -40 46 c-46 53 -52 77 -52 235 0 264 -26 550 -61 680 -36 135 -83 196
-187 249 -53 27 -244 102 -249 98 -1 -2 13 -33 32 -69 55 -104 165 -356 165
-379 0 -12 -20 -54 -45 -93 -25 -40 -45 -80 -45 -88 0 -9 20 -51 45 -94 28
-49 44 -90 44 -109 -1 -29 -1 -29 -8 5 -4 19 -28 71 -54 114 l-46 79 19 36
c10 20 33 56 49 81 17 25 31 55 31 68 0 25 -122 301 -176 398 -20 37 -42 64
-55 67 -16 4 -19 2 -14 -11z m332 -744 c-1 -68 -3 -13 -3 122 0 135 2 190 3
123 2 -68 2 -178 0 -245z m-107 -249 c-22 -99 -60 -233 -65 -227 -2 2 14 71
36 153 21 83 39 161 40 175 1 14 3 18 6 9 2 -8 -5 -58 -17 -110z"/>
<path d="M1152 3353 c2 -5 33 -69 70 -143 118 -239 170 -398 202 -613 16 -110
20 -267 8 -347 l-7 -45 -34 60 c-42 75 -54 90 -116 145 -48 43 -48 42 11 -21
66 -71 118 -155 129 -204 3 -16 9 -41 13 -55 12 -49 30 271 20 370 -16 166
-12 213 26 345 4 11 0 7 -8 -10 -8 -16 -20 -54 -27 -83 l-13 -53 -36 123 c-20
68 -59 177 -86 244 -48 115 -139 294 -150 294 -3 0 -4 -3 -2 -7z"/>
<path d="M4990 3275 c0 -2 7 -23 16 -45 17 -41 31 -50 40 -26 8 20 -23 76 -41
76 -8 0 -15 -2 -15 -5z"/>
<path d="M4962 3248 c-19 -19 -14 -108 9 -158 24 -54 76 -110 101 -110 27 0
22 22 -18 80 -20 30 -39 71 -43 98 -8 45 -27 102 -34 102 -2 0 -8 -5 -15 -12z"/>
<path d="M5320 3251 c0 -7 -30 -11 -80 -11 -79 0 -80 0 -80 -25 0 -25 1 -25
79 -25 44 0 81 -4 83 -10 2 -5 20 0 41 13 l38 23 -41 23 c-22 12 -40 17 -40
12z"/>
<path d="M5080 3061 c0 -22 32 -81 40 -76 13 8 13 28 -2 60 -11 23 -38 35 -38
16z"/>
<path d="M1069 2987 c20 -25 56 -42 123 -56 61 -13 96 -40 129 -101 14 -26 18
-28 13 -10 -9 35 -50 88 -82 104 -15 7 -53 19 -84 25 -31 7 -69 22 -85 34 -20
16 -24 17 -14 4z"/>
<path d="M1506 2968 c-3 -7 -7 -25 -10 -40 -3 -14 -9 -34 -12 -45 -5 -15 -4
-16 5 -2 11 17 32 99 25 99 -3 0 -6 -6 -8 -12z"/>
<path d="M1574 2498 c-4 -6 -9 -47 -10 -90 -2 -67 -7 -85 -31 -121 -41 -59
-45 -67 -39 -67 3 0 22 24 42 54 33 50 36 62 39 135 1 43 6 84 9 90 4 6 5 11
2 11 -3 0 -8 -5 -12 -12z"/>
<path d="M1472 2193 c-13 -25 -25 -80 -16 -70 10 10 34 80 29 85 -2 2 -8 -5
-13 -15z"/>
<path d="M3478 1869 c34 -17 75 -47 92 -67 16 -20 30 -32 30 -26 0 18 -87 94
-125 110 -62 25 -59 15 3 -17z"/>
<path d="M3428 1849 c29 -12 69 -36 88 -55 19 -19 34 -31 34 -26 0 26 -119
102 -160 101 -8 0 9 -9 38 -20z"/>
<path d="M3386 1820 c29 -10 64 -26 80 -36 17 -12 25 -14 20 -5 -11 17 -105
61 -131 60 -11 0 3 -9 31 -19z"/>
<path d="M3300 1783 c0 -7 3 -13 8 -14 151 -12 184 -1 55 18 -51 8 -63 7 -63
-4z"/>
</g>
</svg>
